<svg width="268" height="58" viewBox="0 0 268 58" fill="none" xmlns="http://www.w3.org/2000/svg">
<path d="M6.50986 15.4881V13.6321H15.3549C15.0069 8.68279 12.4549 6.20812 7.69886 6.20812C7.06086 6.20812 6.50986 6.26612 6.04586 6.38212C5.58186 6.49812 5.24352 6.62379 5.03086 6.75912L4.62486 7.33912V10.0071H2.76886V5.54112C3.46486 5.09646 4.28652 4.78712 5.23386 4.61312C6.20052 4.43912 7.14786 4.35212 8.07586 4.35212C9.77719 4.35212 11.2949 4.55512 12.6289 4.96112C13.9629 5.34779 15.0939 5.96646 16.0219 6.81712C16.9499 7.64845 17.6555 8.71179 18.1389 10.0071C18.6415 11.3025 18.8929 12.8395 18.8929 14.6181C18.8929 16.4548 18.6029 18.0498 18.0229 19.4031C17.4622 20.7371 16.6985 21.8488 15.7319 22.7381C14.7845 23.6275 13.6729 24.2848 12.3969 24.7101C11.1209 25.1355 9.78686 25.3481 8.39486 25.3481C7.69886 25.3481 7.06086 25.3288 6.48086 25.2901C5.92019 25.2515 5.40786 25.1838 4.94386 25.0871C4.47986 25.0098 4.05452 24.9131 3.66786 24.7971C3.28119 24.6618 2.90419 24.5071 2.53686 24.3331V19.3161H4.39286V22.3611L4.82786 22.9701C5.09852 23.1055 5.50452 23.2311 6.04586 23.3471C6.60652 23.4438 7.14786 23.4921 7.66986 23.4921C8.63652 23.4921 9.57419 23.3471 10.4829 23.0571C11.4109 22.7671 12.2325 22.3031 12.9479 21.6651C13.6632 21.0271 14.2335 20.2055 14.6589 19.2001C15.1035 18.1755 15.3355 16.9381 15.3549 15.4881H6.50986ZM29.7547 23.3761V25.0001H21.4607V23.3761H24.0997V6.32412H21.4607V4.70012H29.7547V6.32412H27.3477V13.7771H37.4977V6.32412H35.0907V4.70012H43.3847V6.32412H40.7457V23.3761H43.3847V25.0001H35.0907V23.3761H37.4977V15.4011H27.3477V23.3761H29.7547ZM60.8228 23.3761V6.32412H58.4158V4.70012H66.7098V6.32412H64.0708V23.3761H67.2898V29.6981H65.2888V25.6381L64.7088 25.0001H45.2498V23.3761H47.8888V6.32412H45.2498V4.70012H53.5438V6.32412H51.1368V23.3761H60.8228ZM76.993 25.0001H68.699V23.3761H71.338V6.32412H68.699V4.70012H76.993V6.32412H74.586V18.7651L74.238 20.9401L75.804 18.6491L85.287 6.96212V6.32412H82.648V4.70012H91V6.32412H88.361V23.3761H91V25.0001H82.648V23.3761H85.113V10.9641L85.432 8.78912L84.011 10.9641L74.383 22.7961V23.3761H76.993V25.0001ZM100.628 13.9221L106.95 6.32412H104.601V4.70012H111.764V6.32412H109.473L102.571 14.0671L110.778 23.3761H112.576V25.0001H107.907L100.28 15.3721H98.7432V23.3761H101.15V25.0001H92.8562V23.3761H95.4952V6.32412H92.8562V4.70012H101.15V6.32412H98.7432V13.9221H100.628ZM121.129 6.32412C121.032 9.05012 120.877 11.3315 120.665 13.1681C120.471 14.9855 120.239 16.5225 119.969 17.7791C119.717 19.0165 119.427 20.0411 119.099 20.8531C118.77 21.6458 118.432 22.3708 118.084 23.0281C117.91 23.3568 117.697 23.6855 117.446 24.0141C117.194 24.3428 116.933 24.6715 116.663 25.0001H113.299V21.3461H116.663C116.953 20.8628 117.243 20.2248 117.533 19.4321C117.842 18.6201 118.113 17.6148 118.345 16.4161C118.577 15.1981 118.76 13.7578 118.896 12.0951C119.05 10.4325 119.128 8.50879 119.128 6.32412H116.112V4.70012H133.077V6.32412H130.438V23.3761H133.077V25.0001H124.696V23.3761H127.19V6.32412H121.129ZM135.665 14.8501C135.665 13.3421 135.897 11.9501 136.361 10.6741C136.825 9.37879 137.492 8.26712 138.362 7.33912C139.252 6.39179 140.334 5.65712 141.61 5.13512C142.906 4.61312 144.375 4.35212 146.018 4.35212C147.662 4.35212 149.131 4.61312 150.426 5.13512C151.722 5.65712 152.814 6.39179 153.703 7.33912C154.593 8.26712 155.269 9.37879 155.733 10.6741C156.197 11.9501 156.429 13.3421 156.429 14.8501C156.429 16.3581 156.197 17.7598 155.733 19.0551C155.269 20.3311 154.593 21.4428 153.703 22.3901C152.814 23.3181 151.722 24.0431 150.426 24.5651C149.131 25.0871 147.662 25.3481 146.018 25.3481C144.375 25.3481 142.906 25.0871 141.61 24.5651C140.334 24.0431 139.252 23.3181 138.362 22.3901C137.492 21.4428 136.825 20.3311 136.361 19.0551C135.897 17.7598 135.665 16.3581 135.665 14.8501ZM139.29 14.8501C139.29 16.0875 139.426 17.2475 139.696 18.3301C139.986 19.4128 140.421 20.3505 141.001 21.1431C141.581 21.9358 142.306 22.5641 143.176 23.0281C144.066 23.4921 145.11 23.7241 146.308 23.7241C147.41 23.7241 148.367 23.4921 149.179 23.0281C149.991 22.5641 150.658 21.9358 151.18 21.1431C151.722 20.3505 152.128 19.4128 152.398 18.3301C152.669 17.2475 152.804 16.0875 152.804 14.8501C152.804 13.6128 152.659 12.4528 152.369 11.3701C152.099 10.2875 151.673 9.34979 151.093 8.55712C150.513 7.76445 149.779 7.13612 148.889 6.67212C148.019 6.20812 146.975 5.97612 145.757 5.97612C144.597 5.97612 143.602 6.20812 142.77 6.67212C141.958 7.13612 141.291 7.76445 140.769 8.55712C140.247 9.34979 139.87 10.2875 139.638 11.3701C139.406 12.4528 139.29 13.6128 139.29 14.8501ZM164.899 6.32412V23.3761H167.306V25.0001H159.012V23.3761H161.651V6.32412H159.012V4.70012H180.588V6.32412H177.949V23.3761H180.588V25.0001H172.294V23.3761H174.701V6.32412H164.899ZM197.861 4.70012V9.45612H196.005V6.96212L195.425 6.32412H188.32V13.8351H193.221L193.656 13.4001V12.1821H195.512V17.1411H193.656V15.9231L193.221 15.4591H188.32V23.3761H195.918L196.498 22.7961V19.9541H198.354V25.0001H182.433V23.3761H185.072V6.32412H182.433V4.70012H197.861ZM221.338 6.32412H218.699V23.3761H221.715V29.6981H219.54V25.6381L218.96 25.0001H203.242L202.662 25.6381V29.6981H200.487V23.3761H203.329C203.87 22.5641 204.382 21.5201 204.866 20.2441C205.349 18.9681 205.765 17.5761 206.113 16.0681C206.48 14.5408 206.77 12.9458 206.983 11.2831C207.195 9.60112 207.302 7.94812 207.302 6.32412H204.17V4.70012H221.338V6.32412ZM215.451 23.3761V6.32412H209.303C209.187 8.70212 208.984 10.8191 208.694 12.6751C208.423 14.5118 208.104 16.1261 207.737 17.5181C207.389 18.9101 207.012 20.0895 206.606 21.0561C206.219 22.0035 205.871 22.7768 205.562 23.3761H215.451ZM231.707 25.0001H223.413V23.3761H226.052V6.32412H223.413V4.70012H231.707V6.32412H229.3V18.7651L228.952 20.9401L230.518 18.6491L240.001 6.96212V6.32412H237.362V4.70012H245.714V6.32412H243.075V23.3761H245.714V25.0001H237.362V23.3761H239.827V10.9641L240.146 8.78912L238.725 10.9641L229.097 22.7961V23.3761H231.707V25.0001ZM266.304 4.70012V6.32412H263.665V23.3761H266.304V25.0001H257.604V23.3761H260.417V16.5321H257.169L251.63 25.0001H246.932V23.3761H248.73L254.24 16.3291C253.563 16.1745 252.935 15.9425 252.355 15.6331C251.775 15.3238 251.263 14.9371 250.818 14.4731C250.393 13.9898 250.054 13.4291 249.803 12.7911C249.552 12.1531 249.426 11.4281 249.426 10.6161C249.426 9.55279 249.677 8.64412 250.18 7.89012C250.683 7.11679 251.35 6.48845 252.181 6.00512C253.032 5.52179 253.998 5.17379 255.081 4.96112C256.183 4.72912 257.314 4.61312 258.474 4.61312C258.919 4.61312 259.46 4.63245 260.098 4.67112C260.755 4.69045 261.422 4.70012 262.099 4.70012H266.304ZM258.184 15.0241C258.571 15.0241 258.967 15.0145 259.373 14.9951C259.798 14.9565 260.146 14.9081 260.417 14.8501V6.38212C260.204 6.34345 259.905 6.31445 259.518 6.29512C259.131 6.25645 258.774 6.23712 258.445 6.23712C256.802 6.23712 255.487 6.57545 254.501 7.25212C253.534 7.90945 253.051 9.03079 253.051 10.6161C253.051 12.0661 253.467 13.1681 254.298 13.9221C255.149 14.6568 256.444 15.0241 258.184 15.0241Z" fill="black"/>
<path d="M8.22073 54.348C7.02207 54.348 5.9104 54.2417 4.88573 54.029C3.86107 53.8163 2.9814 53.5457 2.24673 53.217V48.374H4.10273V51.622L4.53773 52.173C4.71173 52.2697 4.94373 52.3567 5.23373 52.434C5.54307 52.492 5.86207 52.55 6.19073 52.608C6.53873 52.6467 6.88673 52.6757 7.23473 52.695C7.58273 52.7143 7.89207 52.724 8.16273 52.724C8.9554 52.724 9.67073 52.6177 10.3087 52.405C10.9661 52.1923 11.5171 51.8927 11.9617 51.506C12.4257 51.1193 12.7834 50.665 13.0347 50.143C13.2861 49.6017 13.4117 49.012 13.4117 48.374C13.4117 47.62 13.2764 46.9917 13.0057 46.489C12.7544 45.9863 12.4064 45.59 11.9617 45.3C11.5364 44.9907 11.0337 44.778 10.4537 44.662C9.87373 44.546 9.26473 44.488 8.62673 44.488H6.10373V42.632H9.78673C10.7727 42.3227 11.5267 41.849 12.0487 41.211C12.5707 40.573 12.8317 39.79 12.8317 38.862C12.8317 37.6053 12.4354 36.6483 11.6427 35.991C10.8694 35.3143 9.7674 34.976 8.33673 34.976C7.69873 34.976 7.0704 35.034 6.45173 35.15C5.8524 35.266 5.42707 35.4013 5.17573 35.556L4.79873 36.107V38.978H2.94273V34.541C3.29073 34.309 3.68707 34.1253 4.13173 33.99C4.5764 33.8353 5.0404 33.7097 5.52373 33.613C6.0264 33.5163 6.52907 33.4487 7.03173 33.41C7.5344 33.3713 8.01773 33.352 8.48173 33.352C9.37107 33.352 10.2604 33.4197 11.1497 33.555C12.0584 33.6903 12.8704 33.9513 13.5857 34.338C14.3204 34.7053 14.9197 35.2177 15.3837 35.875C15.8477 36.513 16.0797 37.3347 16.0797 38.34C16.0797 39.326 15.7511 40.254 15.0937 41.124C14.4557 41.994 13.4407 42.661 12.0487 43.125V43.241C12.7061 43.3377 13.3151 43.5117 13.8757 43.763C14.4557 43.995 14.9584 44.314 15.3837 44.72C15.8091 45.1067 16.1377 45.59 16.3697 46.17C16.6211 46.75 16.7467 47.4363 16.7467 48.229C16.7467 49.273 16.5147 50.1817 16.0507 50.955C15.5867 51.7283 14.9584 52.3663 14.1657 52.869C13.3924 53.3717 12.4934 53.7487 11.4687 54C10.4441 54.232 9.3614 54.348 8.22073 54.348ZM31.8653 54H24.7603V52.376H27.0223L34.5333 33.7H37.6073L44.4803 52.376H46.6553V54H38.3613V52.376H40.9423L39.0573 47.272H31.3433L29.3713 52.376H31.8653V54ZM32.0103 45.648H38.5643L36.1863 38.949L35.4613 35.875H35.3453L34.5043 39.007L32.0103 45.648ZM59.8469 42.197C60.2335 42.1583 60.7072 42.1197 61.2679 42.081C61.8479 42.023 62.3602 41.994 62.8049 41.994C63.8682 41.994 64.8832 42.1003 65.8499 42.313C66.8359 42.5063 67.7059 42.835 68.4599 43.299C69.2139 43.763 69.8132 44.3817 70.2579 45.155C70.7025 45.909 70.9249 46.8467 70.9249 47.968C70.9249 49.0313 70.6929 49.9497 70.2289 50.723C69.7649 51.477 69.1365 52.1053 68.3439 52.608C67.5512 53.1107 66.6329 53.4877 65.5889 53.739C64.5642 53.971 63.4719 54.087 62.3119 54.087C62.1959 54.087 61.9735 54.0773 61.6449 54.058C61.3162 54.058 60.9392 54.0483 60.5139 54.029C60.1079 54.029 59.6825 54.0193 59.2379 54C58.7932 54 58.4065 54 58.0779 54H53.9599V52.376H56.5989V35.324H53.9599V33.7H69.5329V39.007H67.4449V35.962L66.8649 35.324H59.8469V42.197ZM62.0509 43.618C61.5482 43.618 61.1229 43.6277 60.7749 43.647C60.4269 43.6663 60.1175 43.7147 59.8469 43.792V52.318C59.9435 52.3567 60.0982 52.3857 60.3109 52.405C60.5235 52.405 60.7459 52.4147 60.9779 52.434C61.2099 52.4533 61.4322 52.463 61.6449 52.463C61.8575 52.463 62.0219 52.463 62.1379 52.463C62.8919 52.463 63.5782 52.376 64.1969 52.202C64.8349 52.028 65.3762 51.7573 65.8209 51.39C66.2849 51.0033 66.6425 50.5297 66.8939 49.969C67.1645 49.4083 67.2999 48.7317 67.2999 47.939C67.2999 46.5277 66.8649 45.4547 65.9949 44.72C65.1249 43.9853 63.8102 43.618 62.0509 43.618ZM85.803 54H78.698V52.376H80.96L88.471 33.7H91.545L98.418 52.376H100.593V54H92.299V52.376H94.88L92.995 47.272H85.281L83.309 52.376H85.803V54ZM85.948 45.648H92.502L90.124 38.949L89.399 35.875H89.283L88.442 39.007L85.948 45.648ZM116.192 54H107.898V52.376H110.537V35.324H107.898V33.7H116.192V35.324H113.785V47.765L113.437 49.94L115.003 47.649L124.486 35.962V35.324H121.847V33.7H130.199V35.324H127.56V52.376H130.199V54H121.847V52.376H124.312V39.964L124.631 37.789L123.21 39.964L113.582 51.796V52.376H116.192V54ZM119.208 32.453C117.216 32.453 115.747 32.1243 114.8 31.467C113.852 30.8097 113.379 29.8043 113.379 28.451H116.743V30.742C117.013 30.8773 117.371 30.9837 117.816 31.061C118.26 31.119 118.734 31.148 119.237 31.148C119.604 31.148 120.039 31.119 120.542 31.061C121.044 31.003 121.441 30.9257 121.731 30.829V28.451H124.95C124.95 29.785 124.495 30.7903 123.587 31.467C122.697 32.1243 121.238 32.453 119.208 32.453ZM146.207 42.922L152.529 35.324H150.18V33.7H157.343V35.324H155.052L148.15 43.067L156.357 52.376H158.155V54H153.486L145.859 44.372H144.322V52.376H146.729V54H138.435V52.376H141.074V35.324H138.435V33.7H146.729V35.324H144.322V42.922H146.207ZM171.637 54H164.532V52.376H166.794L174.305 33.7H177.379L184.252 52.376H186.427V54H178.133V52.376H180.714L178.829 47.272H171.115L169.143 52.376H171.637V54ZM171.782 45.648H178.336L175.958 38.949L175.233 35.875H175.117L174.276 39.007L171.782 45.648ZM201.359 35.324C201.262 38.05 201.108 40.3313 200.895 42.168C200.702 43.9853 200.47 45.5223 200.199 46.779C199.948 48.0163 199.658 49.041 199.329 49.853C199 50.6457 198.662 51.3707 198.314 52.028C198.14 52.3567 197.927 52.6853 197.676 53.014C197.425 53.3427 197.164 53.6713 196.893 54H193.529V50.346H196.893C197.183 49.8627 197.473 49.2247 197.763 48.432C198.072 47.62 198.343 46.6147 198.575 45.416C198.807 44.198 198.991 42.7577 199.126 41.095C199.281 39.4323 199.358 37.5087 199.358 35.324H196.342V33.7H213.307V35.324H210.668V52.376H213.307V54H204.926V52.376H207.42V35.324H201.359ZM227.437 41.907C227.824 41.849 228.298 41.8007 228.858 41.762C229.419 41.7233 229.922 41.704 230.366 41.704C231.449 41.704 232.503 41.791 233.527 41.965C234.552 42.139 235.461 42.458 236.253 42.922C237.046 43.3667 237.674 43.9757 238.138 44.749C238.622 45.5223 238.863 46.4987 238.863 47.678C238.863 48.8187 238.612 49.795 238.109 50.607C237.607 51.3997 236.94 52.057 236.108 52.579C235.277 53.101 234.32 53.4877 233.237 53.739C232.155 53.971 231.024 54.087 229.844 54.087C229.748 54.087 229.535 54.0773 229.206 54.058C228.897 54.058 228.539 54.0483 228.133 54.029C227.727 54.029 227.302 54.0193 226.857 54C226.432 54 226.055 54 225.726 54H221.55V52.376H224.189V35.324H221.55V33.7H230.337V35.324H227.437V41.907ZM229.641 43.328C229.119 43.328 228.684 43.3473 228.336 43.386C228.008 43.4053 227.708 43.444 227.437 43.502V52.318C227.553 52.3567 227.708 52.3857 227.901 52.405C228.114 52.405 228.336 52.4147 228.568 52.434C228.8 52.4533 229.023 52.463 229.235 52.463C229.448 52.463 229.612 52.463 229.728 52.463C230.463 52.463 231.159 52.376 231.816 52.202C232.493 52.028 233.083 51.7477 233.585 51.361C234.088 50.9743 234.484 50.4813 234.774 49.882C235.084 49.2633 235.238 48.519 235.238 47.649C235.238 46.8757 235.103 46.2183 234.832 45.677C234.581 45.1163 234.214 44.662 233.73 44.314C233.247 43.966 232.657 43.7147 231.961 43.56C231.265 43.4053 230.492 43.328 229.641 43.328ZM266.007 33.7V35.324H263.368V52.376H266.007V54H257.307V52.376H260.12V45.532H256.872L251.333 54H246.635V52.376H248.433L253.943 45.329C253.267 45.1743 252.638 44.9423 252.058 44.633C251.478 44.3237 250.966 43.937 250.521 43.473C250.096 42.9897 249.758 42.429 249.506 41.791C249.255 41.153 249.129 40.428 249.129 39.616C249.129 38.5527 249.381 37.644 249.883 36.89C250.386 36.1167 251.053 35.4883 251.884 35.005C252.735 34.5217 253.702 34.1737 254.784 33.961C255.886 33.729 257.017 33.613 258.177 33.613C258.622 33.613 259.163 33.6323 259.801 33.671C260.459 33.6903 261.126 33.7 261.802 33.7H266.007ZM257.887 44.024C258.274 44.024 258.67 44.0143 259.076 43.995C259.502 43.9563 259.85 43.908 260.12 43.85V35.382C259.908 35.3433 259.608 35.3143 259.221 35.295C258.835 35.2563 258.477 35.237 258.148 35.237C256.505 35.237 255.19 35.5753 254.204 36.252C253.238 36.9093 252.754 38.0307 252.754 39.616C252.754 41.066 253.17 42.168 254.001 42.922C254.852 43.6567 256.147 44.024 257.887 44.024Z" fill="url(#paint0_linear_458_4837)"/>
<defs>
<linearGradient id="paint0_linear_458_4837" x1="-32.9567" y1="75.5208" x2="-8.90932" y2="-36.4416" gradientUnits="userSpaceOnUse">
<stop stop-color="#007B9A"/>
<stop offset="0.533052" stop-color="#01BE84"/>
<stop offset="1" stop-color="#2EED45"/>
</linearGradient>
</defs>
</svg>
