<svg width="24" height="25" viewBox="0 0 24 25" fill="none" xmlns="http://www.w3.org/2000/svg">
<path fill-rule="evenodd" clip-rule="evenodd" d="M4 12.2871C4 11.7348 4.44772 11.2871 5 11.2871H19C19.5523 11.2871 20 11.7348 20 12.2871C20 12.8394 19.5523 13.2871 19 13.2871H5C4.44772 13.2871 4 12.8394 4 12.2871Z" fill="currentColor"/>
<path fill-rule="evenodd" clip-rule="evenodd" d="M11.2929 4.58C11.6834 4.18948 12.3166 4.18948 12.7071 4.58L19.7071 11.58C20.0976 11.9705 20.0976 12.6037 19.7071 12.9942L12.7071 19.9942C12.3166 20.3847 11.6834 20.3847 11.2929 19.9942C10.9024 19.6037 10.9024 18.9705 11.2929 18.58L17.5858 12.2871L11.2929 5.99422C10.9024 5.60369 10.9024 4.97053 11.2929 4.58Z" fill="currentColor"/>
</svg>
