<svg width="32" height="32" viewBox="0 0 32 32" fill="none" xmlns="http://www.w3.org/2000/svg">
<path fill-rule="evenodd" clip-rule="evenodd" d="M4 24C4 23.4477 4.41328 23 4.92308 23H27.0769C27.5867 23 28 23.4477 28 24C28 24.5523 27.5867 25 27.0769 25H4.92308C4.41328 25 4 24.5523 4 24Z" fill="currentColor"/>
<path fill-rule="evenodd" clip-rule="evenodd" d="M4 16C4 15.4477 4.41328 15 4.92308 15H27.0769C27.5867 15 28 15.4477 28 16C28 16.5523 27.5867 17 27.0769 17H4.92308C4.41328 17 4 16.5523 4 16Z" fill="currentColor"/>
<path fill-rule="evenodd" clip-rule="evenodd" d="M4 8C4 7.44772 4.41328 7 4.92308 7H27.0769C27.5867 7 28 7.44772 28 8C28 8.55228 27.5867 9 27.0769 9H4.92308C4.41328 9 4 8.55228 4 8Z" fill="currentColor"/>
</svg>