<svg width="190" height="65" viewBox="0 0 190 65" fill="none" xmlns="http://www.w3.org/2000/svg">
<g clip-path="url(#clip0_500_45)">
<mask id="mask0_500_45" style="mask-type:luminance" maskUnits="userSpaceOnUse" x="-1" y="0" width="191" height="65">
<path d="M189.999 0H-0.000976562V64.4644H189.999V0Z" fill="white"/>
</mask>
<g mask="url(#mask0_500_45)">
<path d="M14.8598 26.8851V37.8467H-0.000976562V26.8851H3.0526V35.3882H5.91826V26.8851H8.97184V35.3882H11.8062V26.8851H14.8598ZM23.2004 33.65H21.7911V37.8467H18.7062V26.8851H21.7911V31.1445H23.2787L25.8939 26.8851H29.151L25.7216 32.178L29.1823 37.8467H25.6903L23.2004 33.65ZM42.4163 26.8851L37.8751 35.3569C37.3949 36.2651 36.805 36.9541 36.1056 37.4239C35.4166 37.8937 34.6597 38.1286 33.835 38.1286C33.2295 38.1286 32.5822 37.9928 31.8932 37.7214L32.6292 35.4352C33.0572 35.5604 33.4226 35.6231 33.7254 35.6231C34.0281 35.6231 34.2943 35.5552 34.524 35.4195C34.7641 35.2838 34.9833 35.0698 35.1817 34.7775L30.9223 26.8851H34.1951L36.7476 32.178L39.3941 26.8851H42.4163ZM54.9884 26.8851V37.8467H51.9348V29.3437H48.7873L48.7247 31.1288C48.6725 32.6948 48.542 33.9684 48.3332 34.9497C48.1348 35.931 47.7903 36.6931 47.2997 37.236C46.809 37.7684 46.1148 38.0346 45.217 38.0346C44.7994 38.0346 44.3296 37.972 43.8076 37.8467L43.9799 35.3099C44.1156 35.3412 44.2565 35.3569 44.4027 35.3569C44.8098 35.3569 45.123 35.195 45.3423 34.8714C45.5615 34.5478 45.7181 34.0989 45.812 33.5247C45.906 32.9401 45.9686 32.1832 46 31.2541L46.1565 26.8851H54.9884ZM67.6996 35.4508V37.8467H58.8991V26.8851H67.4961V29.281H61.9683V31.1288H66.8384V33.4464H61.9683V35.4508H67.6996ZM61.5455 26.0083C61.1906 26.0083 60.893 25.8987 60.6529 25.6795C60.4233 25.4498 60.3084 25.1523 60.3084 24.7869C60.3084 24.4215 60.4233 24.124 60.6529 23.8943C60.893 23.6646 61.1906 23.5498 61.5455 23.5498C61.9005 23.5498 62.1928 23.6646 62.4224 23.8943C62.6625 24.124 62.7826 24.4215 62.7826 24.7869C62.7826 25.1523 62.6625 25.4498 62.4224 25.6795C62.1928 25.8987 61.9005 26.0083 61.5455 26.0083ZM64.8653 26.0083C64.5104 26.0083 64.2128 25.8987 63.9727 25.6795C63.743 25.4498 63.6282 25.1523 63.6282 24.7869C63.6282 24.4215 63.743 24.124 63.9727 23.8943C64.2128 23.6646 64.5104 23.5498 64.8653 23.5498C65.2202 23.5498 65.5126 23.6646 65.7422 23.8943C65.9823 24.124 66.1024 24.4215 66.1024 24.7869C66.1024 25.1523 65.9823 25.4498 65.7422 25.6795C65.5126 25.8987 65.2202 26.0083 64.8653 26.0083ZM79.0182 32.1154C79.6655 32.3242 80.1561 32.6478 80.4902 33.0863C80.8347 33.5247 81.007 34.0676 81.007 34.7148C81.007 35.6857 80.6259 36.453 79.8638 37.0167C79.1122 37.57 78.0421 37.8467 76.6537 37.8467H71.032V26.8851H76.3561C77.6715 26.8851 78.6894 27.1357 79.4097 27.6368C80.1405 28.1275 80.5059 28.8269 80.5059 29.7351C80.5059 30.2676 80.3754 30.7373 80.1144 31.1445C79.8638 31.5516 79.4984 31.8753 79.0182 32.1154ZM74.0855 31.2698H76.0586C76.9355 31.2698 77.374 30.9096 77.374 30.1893C77.374 29.4689 76.9355 29.1088 76.0586 29.1088H74.0855V31.2698ZM76.5284 35.6231C77.4262 35.6231 77.8751 35.242 77.8751 34.4799C77.8751 33.7387 77.4262 33.3681 76.5284 33.3681H74.0855V35.6231H76.5284Z" fill="#ABABAB"/>
<path d="M92.1393 26.885L95.2555 31.2226L98.356 26.885H99.7184L95.9758 32.1465L100.016 37.8465H98.6536L95.2555 33.1331L91.8574 37.8465H90.5264L94.5508 32.1935L90.8082 26.885H92.1393ZM108.19 37.9405C107.104 37.9405 106.118 37.7004 105.231 37.2201C104.354 36.7295 103.665 36.0614 103.163 35.2158C102.673 34.3701 102.427 33.4201 102.427 32.3657C102.427 31.3114 102.673 30.3614 103.163 29.5157C103.665 28.6701 104.354 28.0072 105.231 27.527C106.118 27.0363 107.104 26.791 108.19 26.791C109.276 26.791 110.252 27.0311 111.118 27.5113C111.995 27.9916 112.684 28.6597 113.185 29.5157C113.687 30.3614 113.937 31.3114 113.937 32.3657C113.937 33.4201 113.687 34.3754 113.185 35.2314C112.684 36.077 111.995 36.7399 111.118 37.2201C110.252 37.7004 109.276 37.9405 108.19 37.9405ZM108.19 36.907C109.057 36.907 109.84 36.7138 110.539 36.3276C111.238 35.9309 111.787 35.388 112.183 34.699C112.58 33.9995 112.778 33.2218 112.778 32.3657C112.778 31.5097 112.58 30.7372 112.183 30.0482C111.787 29.3487 111.238 28.8059 110.539 28.4196C109.84 28.0229 109.057 27.8245 108.19 27.8245C107.324 27.8245 106.535 28.0229 105.826 28.4196C105.126 28.8059 104.573 29.3487 104.166 30.0482C103.769 30.7372 103.571 31.5097 103.571 32.3657C103.571 33.2218 103.769 33.9995 104.166 34.699C104.573 35.388 105.126 35.9309 105.826 36.3276C106.535 36.7138 107.324 36.907 108.19 36.907ZM126.559 26.885V37.8465H125.416V27.8872H120.123L119.998 31.5515C119.946 33.0652 119.821 34.2866 119.622 35.2158C119.434 36.1344 119.142 36.8234 118.745 37.2828C118.349 37.7317 117.821 37.9561 117.164 37.9561C116.882 37.9561 116.59 37.9196 116.287 37.8465L116.381 36.813C116.558 36.8548 116.73 36.8756 116.898 36.8756C117.357 36.8756 117.727 36.693 118.009 36.3276C118.302 35.9622 118.521 35.3984 118.667 34.6364C118.813 33.8638 118.912 32.846 118.965 31.5828L119.121 26.885H126.559ZM141.724 36.8443V40.305H140.644V37.8465H131.076L131.06 40.305H129.98L129.995 36.8443H130.543C131.264 36.8026 131.765 36.2336 132.047 35.1375C132.328 34.0309 132.501 32.4649 132.563 30.4396L132.689 26.885H140.08V36.8443H141.724ZM133.597 30.5493C133.545 32.2196 133.414 33.5976 133.205 34.6833C133.007 35.7586 132.668 36.4789 132.188 36.8443H138.937V27.8872H133.691L133.597 30.5493ZM145.654 26.885H146.797V35.9674L153.812 26.885H154.862V37.8465H153.718V28.7798L146.703 37.8465H145.654V26.885ZM169.287 26.885V37.8465H168.144V32.7886H161.285V37.8465H160.126V26.885H161.285V31.7707H168.144V26.885H169.287ZM181.522 27.8872H175.681L175.697 37.8465H174.554V26.885H181.522V27.8872Z" fill="#ABABAB"/>
<path fill-rule="evenodd" clip-rule="evenodd" d="M124.628 0H189.999V64.4644H124.628V47.4857H126.455V62.6374H188.172V1.82692H126.455V16.8288H124.628V0Z" fill="#ABABAB"/>
</g>
</g>
<defs>
<clipPath id="clip0_500_45">
<rect width="190" height="64.4644" fill="white"/>
</clipPath>
</defs>
</svg>
