<svg width="24" height="24" viewBox="0 0 24 24" fill="none" xmlns="http://www.w3.org/2000/svg">
<path d="M17 14.83C16.8126 15.0162 16.5592 15.1208 16.295 15.1208C16.0308 15.1208 15.7774 15.0162 15.59 14.83L12 11.29L8.46001 14.83C8.27265 15.0162 8.0192 15.1208 7.75501 15.1208C7.49082 15.1208 7.23737 15.0162 7.05001 14.83C6.95628 14.737 6.88189 14.6264 6.83112 14.5046C6.78035 14.3827 6.75421 14.252 6.75421 14.12C6.75421 13.988 6.78035 13.8573 6.83112 13.7354C6.88189 13.6136 6.95628 13.503 7.05001 13.41L11.29 9.17C11.383 9.07627 11.4936 9.00187 11.6154 8.95111C11.7373 8.90034 11.868 8.8742 12 8.8742C12.132 8.8742 12.2627 8.90034 12.3846 8.95111C12.5064 9.00187 12.617 9.07627 12.71 9.17L17 13.41C17.0937 13.503 17.1681 13.6136 17.2189 13.7354C17.2697 13.8573 17.2958 13.988 17.2958 14.12C17.2958 14.252 17.2697 14.3827 17.2189 14.5046C17.1681 14.6264 17.0937 14.737 17 14.83Z" fill="currentColor"/>
</svg>
