<svg width="24" height="24" viewBox="0 0 24 24" fill="none" xmlns="http://www.w3.org/2000/svg">
<path d="M15.3494 11.5088L9.57608 5.74212C9.5141 5.67964 9.44037 5.63004 9.35913 5.59619C9.27789 5.56235 9.19075 5.54492 9.10274 5.54492C9.01473 5.54492 8.9276 5.56235 8.84636 5.59619C8.76512 5.63004 8.69138 5.67964 8.62941 5.74212C8.50524 5.86703 8.43555 6.036 8.43555 6.21212C8.43555 6.38824 8.50524 6.55721 8.62941 6.68212L13.9294 12.0155L8.62941 17.3155C8.50524 17.4404 8.43555 17.6093 8.43555 17.7855C8.43555 17.9616 8.50524 18.1305 8.62941 18.2555C8.69115 18.3184 8.76478 18.3686 8.84603 18.4029C8.92728 18.4372 9.01454 18.4551 9.10274 18.4555C9.19095 18.4551 9.2782 18.4372 9.35945 18.4029C9.4407 18.3686 9.51433 18.3184 9.57608 18.2555L15.3494 12.4888C15.4171 12.4264 15.4711 12.3506 15.508 12.2663C15.545 12.1819 15.564 12.0909 15.564 11.9988C15.564 11.9067 15.545 11.8156 15.508 11.7313C15.4711 11.647 15.4171 11.5712 15.3494 11.5088Z" fill="currentColor"/>
</svg>
