<?xml version="1.0" encoding="utf-8"?><svg width="32" height="32" fill="none" xmlns="http://www.w3.org/2000/svg" viewBox="0 0 32 32"><path fill-rule="evenodd" clip-rule="evenodd" d="M4 24c0-.552.413-1 .923-1h22.154c.51 0 .923.448.923 1s-.413 1-.923 1H4.923C4.413 25 4 24.552 4 24zM4 16c0-.552.413-1 .923-1h22.154c.51 0 .923.448.923 1s-.413 1-.923 1H4.923C4.413 17 4 16.552 4 16zM4 8c0-.552.413-1 .923-1h22.154c.51 0 .923.448.923 1s-.413 1-.923 1H4.923C4.413 9 4 8.552 4 8z" fill="currentColor"/></svg>