<?xml version="1.0" encoding="utf-8"?><svg viewBox="0 0 32 32" xmlns="http://www.w3.org/2000/svg" xmlns:xlink="http://www.w3.org/1999/xlink"><style>:root>svg{display:none}:root>svg:target{display:block}</style><svg fill="none" viewBox="0 0 24 24" id="arrow_angle" xmlns="http://www.w3.org/2000/svg"><path d="M15.35 11.509L9.575 5.742a.667.667 0 10-.947.94l5.3 5.333-5.3 5.3a.667.667 0 00.217 1.088.668.668 0 00.513 0 .668.668 0 00.217-.147l5.773-5.767a.666.666 0 000-.98z" fill="currentColor"/></svg><svg fill="none" viewBox="0 0 32 32" id="burger" xmlns="http://www.w3.org/2000/svg"><path fill-rule="evenodd" clip-rule="evenodd" d="M4 24c0-.552.413-1 .923-1h22.154c.51 0 .923.448.923 1s-.413 1-.923 1H4.923C4.413 25 4 24.552 4 24zM4 16c0-.552.413-1 .923-1h22.154c.51 0 .923.448.923 1s-.413 1-.923 1H4.923C4.413 17 4 16.552 4 16zM4 8c0-.552.413-1 .923-1h22.154c.51 0 .923.448.923 1s-.413 1-.923 1H4.923C4.413 9 4 8.552 4 8z" fill="currentColor"/></svg><svg fill="none" viewBox="0 0 16 16" id="search" xmlns="http://www.w3.org/2000/svg"><path d="M14.473 13.527L12 11.073a6 6 0 10-.927.927l2.454 2.453a.665.665 0 00.946 0 .667.667 0 000-.926zM7.333 12a4.667 4.667 0 110-9.335 4.667 4.667 0 010 9.335z" fill="currentColor"/></svg></svg>