<?xml version="1.0" encoding="utf-8"?><svg viewBox="0 0 32 32" xmlns="http://www.w3.org/2000/svg" xmlns:xlink="http://www.w3.org/1999/xlink"><style>:root>svg{display:none}:root>svg:target{display:block}</style><svg fill="none" viewBox="0 0 24 24" id="arrow_angle" xmlns="http://www.w3.org/2000/svg"><path d="M15.35 11.509L9.575 5.742a.667.667 0 10-.947.94l5.3 5.333-5.3 5.3a.667.667 0 00.217 1.088.668.668 0 00.513 0 .668.668 0 00.217-.147l5.773-5.767a.666.666 0 000-.98z" fill="currentColor"/></svg><svg fill="none" viewBox="0 0 24 25" id="arrow_classic" xmlns="http://www.w3.org/2000/svg"><path fill-rule="evenodd" clip-rule="evenodd" d="M4 12.287a1 1 0 011-1h14a1 1 0 110 2H5a1 1 0 01-1-1z" fill="currentColor"/><path fill-rule="evenodd" clip-rule="evenodd" d="M11.293 4.58a1 1 0 011.414 0l7 7a1 1 0 010 1.414l-7 7a1 1 0 01-1.414-1.414l6.293-6.293-6.293-6.293a1 1 0 010-1.414z" fill="currentColor"/></svg><svg fill="none" viewBox="0 0 24 24" id="arrow_expand" xmlns="http://www.w3.org/2000/svg"><path d="M17 14.83a1 1 0 01-1.41 0L12 11.29l-3.54 3.54a1 1 0 11-1.41-1.42l4.24-4.24a1 1 0 011.42 0L17 13.41a1.002 1.002 0 010 1.42z" fill="currentColor"/></svg><svg fill="none" viewBox="0 0 32 32" id="burger" xmlns="http://www.w3.org/2000/svg"><path fill-rule="evenodd" clip-rule="evenodd" d="M4 24c0-.552.413-1 .923-1h22.154c.51 0 .923.448.923 1s-.413 1-.923 1H4.923C4.413 25 4 24.552 4 24zM4 16c0-.552.413-1 .923-1h22.154c.51 0 .923.448.923 1s-.413 1-.923 1H4.923C4.413 17 4 16.552 4 16zM4 8c0-.552.413-1 .923-1h22.154c.51 0 .923.448.923 1s-.413 1-.923 1H4.923C4.413 9 4 8.552 4 8z" fill="currentColor"/></svg><svg fill="none" viewBox="0 0 32 32" id="close" xmlns="http://www.w3.org/2000/svg"><path d="M17.41 16l6.3-6.29a1.004 1.004 0 10-1.42-1.42L16 14.59l-6.29-6.3a1.004 1.004 0 00-1.42 1.42l6.3 6.29-6.3 6.29a1 1 0 00.325 1.639 1 1 0 001.095-.219l6.29-6.3 6.29 6.3a1.002 1.002 0 001.639-.325 1 1 0 00-.219-1.095L17.41 16z" fill="currentColor"/></svg><svg fill="none" viewBox="0 0 16 16" id="search" xmlns="http://www.w3.org/2000/svg"><path d="M14.473 13.527L12 11.073a6 6 0 10-.927.927l2.454 2.453a.665.665 0 00.946 0 .667.667 0 000-.926zM7.333 12a4.667 4.667 0 110-9.335 4.667 4.667 0 010 9.335z" fill="currentColor"/></svg></svg>